<?xml version="1.0" encoding="UTF-8" standalone="no"?>
<!-- Created with Inkscape (http://www.inkscape.org/) -->

<svg
   xmlns:dc="http://purl.org/dc/elements/1.1/"
   xmlns:cc="http://creativecommons.org/ns#"
   xmlns:rdf="http://www.w3.org/1999/02/22-rdf-syntax-ns#"
   xmlns:svg="http://www.w3.org/2000/svg"
   xmlns="http://www.w3.org/2000/svg"
   xmlns:xlink="http://www.w3.org/1999/xlink"
   xmlns:sodipodi="http://sodipodi.sourceforge.net/DTD/sodipodi-0.dtd"
   xmlns:inkscape="http://www.inkscape.org/namespaces/inkscape"
   width="186.16339"
   height="51.865498"
   id="svg4033"
   sodipodi:version="0.32"
   inkscape:version="0.48.2 r9819"
   sodipodi:docname="nixos.svg"
   inkscape:output_extension="org.inkscape.output.svg.inkscape"
   version="1.1">
  <defs
     id="defs4035">
    <linearGradient
       inkscape:collect="always"
       id="linearGradient3801">
      <stop
         style="stop-color:#000000;stop-opacity:1;"
         offset="0"
         id="stop3803" />
      <stop
         style="stop-color:#000000;stop-opacity:0;"
         offset="1"
         id="stop3805" />
    </linearGradient>
    <clipPath
       clipPathUnits="userSpaceOnUse"
       id="clipPath2451">
      <rect
         style="fill:#4040c0;fill-opacity:1;stroke:#4040c0"
         id="rect2453"
         width="13.035714"
         height="22.053572"
         x="102.94219"
         y="410.77362" />
    </clipPath>
    <linearGradient
       inkscape:collect="always"
       xlink:href="#linearGradient3801"
       id="linearGradient3807"
       x1="60.189395"
       y1="25.090438"
       x2="85.001895"
       y2="25.090438"
       gradientUnits="userSpaceOnUse" />
  </defs>
  <sodipodi:namedview
     id="base"
     pagecolor="#ffffff"
     bordercolor="#666666"
     borderopacity="1.0"
     gridtolerance="10000"
     guidetolerance="10"
     objecttolerance="10"
     inkscape:pageopacity="0.0"
     inkscape:pageshadow="2"
     inkscape:zoom="5.6"
     inkscape:cx="117.23682"
     inkscape:cy="26.346488"
     inkscape:document-units="px"
     inkscape:current-layer="g2418"
     showgrid="true"
     inkscape:window-width="1364"
     inkscape:window-height="766"
     inkscape:window-x="0"
     inkscape:window-y="0"
     showguides="true"
     inkscape:snap-global="false"
     fit-margin-top="0"
     fit-margin-left="0"
     fit-margin-right="0"
     fit-margin-bottom="0"
     inkscape:window-maximized="0">
    <inkscape:grid
       type="xygrid"
       id="grid4043"
       empspacing="5"
       visible="true"
       enabled="true"
       snapvisiblegridlinesonly="true" />
  </sodipodi:namedview>
  <metadata
     id="metadata4038">
    <rdf:RDF>
      <cc:Work
         rdf:about="">
        <dc:format>image/svg+xml</dc:format>
        <dc:type
           rdf:resource="http://purl.org/dc/dcmitype/StillImage" />
        <dc:title></dc:title>
      </cc:Work>
    </rdf:RDF>
  </metadata>
  <g
     inkscape:label="Layer 1"
     inkscape:groupmode="layer"
     id="layer1"
     transform="translate(-15.043014,-17.458374)">
    <g
       transform="matrix(0.9733138,0,0,0.9733138,38.789848,173.0762)"
       id="g4635" />
    <g
       id="g2418">
      <g
         transform="translate(-82.942189,-365.10786)"
         id="g5247">
        <path
           style="fill:none;stroke:#8080ff;stroke-width:2.77110553;stroke-linecap:round;stroke-linejoin:miter;stroke-miterlimit:4;stroke-opacity:1;stroke-dasharray:none"
           d="m 110,402.36218 0,24.5472"
           id="path4701"
           inkscape:connector-curvature="0" />
        <g
           id="g4719"
           style="stroke:#c04040;stroke-width:16;stroke-linecap:round;stroke-miterlimit:4;stroke-opacity:1;stroke-dasharray:none;display:inline"
           transform="matrix(0.1731941,0,0,0.1731941,147.20237,333.63004)">
          <path
             id="path4691"
             d="m -153.4297,361.4173 -122.74376,70.86614"
             style="fill:none;stroke:#4040c0;stroke-width:16;stroke-linecap:round;stroke-linejoin:miter;stroke-miterlimit:4;stroke-opacity:1;stroke-dasharray:none"
             inkscape:connector-curvature="0" />
          <path
             id="path4705"
             d="m -214.80158,396.85037 -34.96956,-20.18968 -26.40232,-15.24339"
             style="fill:none;stroke:#4040c0;stroke-width:16;stroke-linecap:round;stroke-linejoin:miter;stroke-miterlimit:4;stroke-opacity:1;stroke-dasharray:none"
             sodipodi:nodetypes="ccc"
             inkscape:connector-curvature="0" />
        </g>
        <g
           id="g4723"
           style="stroke:#800000;stroke-width:16;stroke-linecap:round;stroke-miterlimit:4;stroke-opacity:1;stroke-dasharray:none;display:inline"
           transform="matrix(0.1731941,0,0,0.1731941,147.20237,333.63004)">
          <path
             id="path4693"
             d="M -92.057819,396.85037 -214.80158,325.98423"
             style="fill:none;stroke:#8080ff;stroke-width:16;stroke-linecap:round;stroke-linejoin:miter;stroke-miterlimit:4;stroke-opacity:1;stroke-dasharray:none"
             inkscape:connector-curvature="0" />
          <path
             id="path4707"
             d="m -153.4297,361.4173 0,-33.02434 0,-37.8418"
             style="fill:none;stroke:#8080ff;stroke-width:16;stroke-linecap:round;stroke-linejoin:miter;stroke-miterlimit:4;stroke-opacity:1;stroke-dasharray:none"
             sodipodi:nodetypes="ccc"
             inkscape:connector-curvature="0" />
        </g>
        <g
           id="g4727"
           style="stroke:#c04040;stroke-width:16;stroke-linecap:round;stroke-miterlimit:4;stroke-opacity:1;stroke-dasharray:none;display:inline"
           transform="matrix(0.1731941,0,0,0.1731941,147.20237,333.63004)">
          <path
             id="path4695"
             d="m -92.057819,467.71651 0,-141.73228"
             style="fill:none;stroke:#4040c0;stroke-width:16;stroke-linecap:round;stroke-linejoin:miter;stroke-miterlimit:4;stroke-opacity:1;stroke-dasharray:none"
             inkscape:connector-curvature="0" />
          <path
             id="path4709"
             d="M -92.057819,396.85037 -30.68594,361.4173"
             style="fill:none;stroke:#4040c0;stroke-width:16;stroke-linecap:round;stroke-linejoin:miter;stroke-miterlimit:4;stroke-opacity:1;stroke-dasharray:none"
             inkscape:connector-curvature="0" />
        </g>
        <g
           id="g4731"
           style="stroke:#800000;stroke-width:16;stroke-linecap:round;stroke-miterlimit:4;stroke-opacity:1;stroke-dasharray:none;display:inline"
           transform="matrix(0.1731941,0,0,0.1731941,147.20237,333.63004)">
          <path
             id="path4697"
             d="M -153.4297,503.14958 -30.68594,432.28344"
             style="fill:none;stroke:#8080ff;stroke-width:16;stroke-linecap:round;stroke-linejoin:miter;stroke-miterlimit:4;stroke-opacity:1;stroke-dasharray:none"
             inkscape:connector-curvature="0" />
          <path
             id="path4711"
             d="m -92.057819,467.71651 61.371879,35.43307"
             style="fill:none;stroke:#8080ff;stroke-width:16;stroke-linecap:round;stroke-linejoin:miter;stroke-miterlimit:4;stroke-opacity:1;stroke-dasharray:none"
             inkscape:connector-curvature="0" />
        </g>
        <g
           id="g4735"
           style="stroke:#c04040;stroke-width:16;stroke-linecap:round;stroke-miterlimit:4;stroke-opacity:1;stroke-dasharray:none;display:inline"
           transform="matrix(0.1731941,0,0,0.1731941,147.20237,333.63004)">
          <path
             id="path4699"
             d="m -214.80158,467.71651 122.743761,70.86615"
             style="fill:none;stroke:#4040c0;stroke-width:16;stroke-linecap:round;stroke-linejoin:miter;stroke-miterlimit:4;stroke-opacity:1;stroke-dasharray:none"
             inkscape:connector-curvature="0" />
          <path
             id="path4713"
             d="m -153.4297,503.14958 0,70.86615"
             style="fill:none;stroke:#4040c0;stroke-width:16;stroke-linecap:round;stroke-linejoin:miter;stroke-miterlimit:4;stroke-opacity:1;stroke-dasharray:none"
             inkscape:connector-curvature="0" />
        </g>
        <g
           id="g2455">
          <g
             id="g2459">
            <g
               id="g2463">
              <path
                 id="path4703"
                 d="m 110,414.63578 -10.629244,6.1368"
                 style="fill:none;stroke:#8080ff;stroke-width:2.77110553;stroke-linecap:round;stroke-linejoin:miter;stroke-miterlimit:4;stroke-opacity:1;stroke-dasharray:none"
                 inkscape:connector-curvature="0" />
              <path
                 clip-path="url(#clipPath2451)"
                 id="path2447"
                 d="m 110,402.36218 0,24.5472"
                 style="fill:none;stroke:#8080ff;stroke-width:2.77110553;stroke-linecap:round;stroke-linejoin:miter;stroke-miterlimit:4;stroke-opacity:1;stroke-dasharray:none"
                 inkscape:connector-curvature="0" />
            </g>
          </g>
          <path
             style="opacity:0.70000012000000000;fill:#ffffff;fill-opacity:1;stroke:url(#linearGradient3807);stroke-width:0;stroke-miterlimit:4;stroke-opacity:1;stroke-dasharray:none"
             d="m 60.809931,25.075415 0,-15.7293083 2.763367,0.1043087 2.763368,0.1043087 6.958996,13.1249999 c 3.827447,7.21875 7.083932,13.125 7.236632,13.125 0.1527,0 0.277637,-5.946429 0.277637,-13.214286 l 0,-13.2142854 1.785714,0 1.785714,0 0,15.7293084 0,15.729309 -2.730171,-0.104309 -2.730172,-0.104309 -7.001971,-13.214285 -7.001971,-13.214286 -0.09363,13.303572 -0.09363,13.303571 -1.959939,0 -1.959939,0 0,-15.729309 z"
             id="path3031"
             inkscape:connector-curvature="0"
             transform="translate(97.985203,382.56623)" />
          <path
             style="opacity:0.70000012000000000;fill:#ffffff;fill-opacity:1;stroke:none;stroke-width:0;stroke-miterlimit:4;stroke-opacity:1;stroke-dasharray:none"
             d="m 60.774217,25.090438 0,-15.7142854 2.767857,0.010286 2.767857,0.010286 6.964286,13.2002784 c 3.830357,7.260154 7.084821,13.201953 7.232142,13.204 0.147322,0.002 0.267857,-5.942708 0.267857,-13.210565 l 0,-13.2142856 1.785715,0 1.785714,0 0,15.7293086 0,15.729309 -2.705394,-0.104309 -2.705393,-0.104309 -6.870117,-12.938605 c -3.778564,-7.116233 -6.98078,-13.049269 -7.116035,-13.184524 -0.135255,-0.135255 -0.245918,5.727296 -0.245918,13.027891 l 0,13.27381 -1.964286,0 -1.964285,0 0,-15.714286 z"
             id="path3809"
             inkscape:connector-curvature="0"
             transform="translate(97.985203,382.56623)" />
          <path
             style="opacity:0.70000012000000000;fill:#ffffff;fill-opacity:1;stroke:none"
             d="m 60.718958,25.215438 0,-15.8035711 2.822894,0 2.822894,0 6.929451,13.0803571 c 3.811199,7.194196 7.000718,13.156696 7.08782,13.25 0.09221,0.09878 0.15837,-5.365391 0.15837,-13.080357 l 0,-13.2500001 2.053571,0 2.053572,0 0,15.8035711 0,15.803572 -2.824082,0 -2.824083,0 -7.041989,-13.30059 c -3.873094,-7.315323 -7.102257,-13.30193 -7.175918,-13.303571 -0.07366,-0.0016 -0.133928,5.983625 -0.133928,13.300589 l 0,13.303572 -1.964286,0 -1.964286,0 0,-15.803572 z"
             id="path3811"
             inkscape:connector-curvature="0"
             transform="translate(97.985203,382.56623)" />
          <path
             style="opacity:0.70000012;fill:#ffffff;fill-opacity:1;stroke:none"
             d="m 60.718958,25.215438 0,-15.8035711 2.824669,0 2.824668,0 6.928081,13.0803571 c 3.810445,7.194196 6.999166,13.156696 7.086047,13.25 0.09168,0.09845 0.157964,-5.390561 0.157964,-13.080357 l 0,-13.2500001 2.053571,0 2.053572,0 0,15.8035711 0,15.803572 -2.825368,0 -2.825368,0 -7.040704,-13.299806 c -3.872387,-7.314892 -7.100971,-13.301499 -7.174632,-13.30357 -0.07366,-0.0021 -0.133928,5.98284 -0.133928,13.299804 l 0,13.303572 -1.964286,0 -1.964286,0 0,-15.803572 z"
             id="path3813"
             inkscape:connector-curvature="0"
             transform="translate(97.985203,382.56623)" />
          <path
             style="fill:#ffffff;stroke:none;fill-opacity:1"
             d="m 60.736816,25.215438 0,-15.8035711 2.816757,0 2.816757,0 6.870743,12.9696421 c 3.778908,7.133302 6.968633,13.09982 7.088278,13.258929 0.171659,0.228279 0.218732,-2.506844 0.223214,-12.969643 l 0.0057,-13.2589281 1.964286,0 1.964285,0 0,15.8035711 0,15.803572 -2.748859,0 -2.748858,0 -7.027927,-13.298456 c -3.86536,-7.314149 -7.088195,-13.300756 -7.161856,-13.303571 -0.07366,-0.0028 -0.133928,5.981491 -0.133928,13.298455 l 0,13.303572 -1.964286,0 -1.964285,0 0,-15.803572 z"
             id="path3815"
             inkscape:connector-curvature="0"
             transform="translate(97.985203,382.56623)" />
          <path
             style="fill:#ffffff;stroke:none;fill-opacity:1"
             d="m 60.736816,25.215438 0,-15.8035711 2.813738,0 2.813739,0 6.873761,12.9701301 c 3.780569,7.133572 6.971652,13.100089 7.091297,13.258929 0.171655,0.227889 0.218732,-2.507606 0.223214,-12.970131 l 0.0057,-13.2589281 1.964286,0 1.964285,0 0,15.8035711 0,15.803572 -2.746103,0 -2.746104,0 -7.030682,-13.298331 c -3.866875,-7.314081 -7.09095,-13.300689 -7.164611,-13.303571 -0.07366,-0.0029 -0.133928,5.981366 -0.133928,13.29833 l 0,13.303572 -1.964286,0 -1.964285,0 0,-15.803572 z"
             id="path3817"
             inkscape:connector-curvature="0"
             transform="translate(97.985203,382.56623)" />
          <path
             style="fill:#ffffff;fill-opacity:1;stroke:none;stroke-opacity:1;opacity:0.70000010000000001;stroke-width:0;stroke-miterlimit:4;stroke-dasharray:none"
             d="m 60.736816,25.215438 0,-15.8035711 2.813738,0 2.813739,0 6.873761,12.9701301 c 3.780569,7.133572 6.971652,13.100089 7.091297,13.258929 0.171655,0.227889 0.218732,-2.507606 0.223214,-12.970131 l 0.0057,-13.2589281 1.964286,0 1.964285,0 0,15.8035711 0,15.803572 -2.746103,0 -2.746104,0 -7.030682,-13.298331 c -3.866875,-7.314081 -7.09095,-13.300689 -7.164611,-13.303571 -0.07366,-0.0029 -0.133928,5.981366 -0.133928,13.29833 l 0,13.303572 -1.964286,0 -1.964285,0 0,-15.803572 z"
             id="path3819"
             inkscape:connector-curvature="0"
             transform="translate(97.985203,382.56623)" />
          <path
             style="opacity:0.70000012;fill:#ffffff;fill-opacity:1;stroke:none"
             d="m 60.736816,25.215438 0,-15.8035711 2.813738,0 2.813739,0 6.873761,12.9701301 c 3.780569,7.133572 6.971652,13.100089 7.091297,13.258929 0.171655,0.227889 0.218732,-2.507606 0.223214,-12.970131 l 0.0057,-13.2589281 1.964286,0 1.964285,0 0,15.8035711 0,15.803572 -2.746103,0 -2.746104,0 -7.030682,-13.298331 c -3.866875,-7.314081 -7.09095,-13.300689 -7.164611,-13.303571 -0.07366,-0.0029 -0.133928,5.981366 -0.133928,13.29833 l 0,13.303572 -1.964286,0 -1.964285,0 0,-15.803572 z"
             id="path3821"
             inkscape:connector-curvature="0"
             transform="translate(97.985203,382.56623)" />
          <path
             style="opacity:0.70000012;fill:#ffffff;fill-opacity:1;stroke:none"
             d="m 60.736816,25.215438 0,-15.8035711 2.813738,0 2.813739,0 6.873761,12.9701301 c 3.780569,7.133572 6.971652,13.100089 7.091297,13.258929 0.171655,0.227889 0.218732,-2.507606 0.223214,-12.970131 l 0.0057,-13.2589281 1.964286,0 1.964285,0 0,15.8035711 0,15.803572 -2.746103,0 -2.746104,0 -7.030682,-13.298331 c -3.866875,-7.314081 -7.09095,-13.300689 -7.164611,-13.303571 -0.07366,-0.0029 -0.133928,5.981366 -0.133928,13.29833 l 0,13.303572 -1.964286,0 -1.964285,0 0,-15.803572 z"
             id="path3823"
             inkscape:connector-curvature="0"
             transform="translate(97.985203,382.56623)" />
          <path
             style="opacity:0.70000012;fill:#ffffff;fill-opacity:1;stroke:none"
             d="m 60.736816,25.215438 0,-15.8035711 2.813738,0 2.813739,0 6.873761,12.9701301 c 3.780569,7.133572 6.971652,13.100089 7.091297,13.258929 0.171655,0.227889 0.218732,-2.507606 0.223214,-12.970131 l 0.0057,-13.2589281 1.964286,0 1.964285,0 0,15.8035711 0,15.803572 -2.746103,0 -2.746104,0 -7.030682,-13.298331 c -3.866875,-7.314081 -7.09095,-13.300689 -7.164611,-13.303571 -0.07366,-0.0029 -0.133928,5.981366 -0.133928,13.29833 l 0,13.303572 -1.964286,0 -1.964285,0 0,-15.803572 z"
             id="path3825"
             inkscape:connector-curvature="0"
             transform="translate(97.985203,382.56623)" />
          <path
             style="opacity:0.70000012;fill:#ffffff;fill-opacity:1;stroke:none"
             d="m 60.736816,25.215438 0,-15.8035711 2.813738,0 2.813739,0 6.873761,12.9701301 c 3.780569,7.133572 6.971652,13.100089 7.091297,13.258929 0.171655,0.227889 0.218732,-2.507606 0.223214,-12.970131 l 0.0057,-13.2589281 1.964286,0 1.964285,0 0,15.8035711 0,15.803572 -2.746103,0 -2.746104,0 -7.030682,-13.298331 c -3.866875,-7.314081 -7.09095,-13.300689 -7.164611,-13.303571 -0.07366,-0.0029 -0.133928,5.981366 -0.133928,13.29833 l 0,13.303572 -1.964286,0 -1.964285,0 0,-15.803572 z"
             id="path3827"
             inkscape:connector-curvature="0"
             transform="translate(97.985203,382.56623)" />
          <path
             style="opacity:0.70000012;fill:#ffffff;fill-opacity:1;stroke:none"
             d="m 60.736816,25.215438 0,-15.8035711 2.813738,0 2.813739,0 6.873761,12.9701301 c 3.780569,7.133572 6.971652,13.100089 7.091297,13.258929 0.171655,0.227889 0.218732,-2.507606 0.223214,-12.970131 l 0.0057,-13.2589281 1.964286,0 1.964285,0 0,15.8035711 0,15.803572 -2.746103,0 -2.746104,0 -7.030682,-13.298331 c -3.866875,-7.314081 -7.09095,-13.300689 -7.164611,-13.303571 -0.07366,-0.0029 -0.133928,5.981366 -0.133928,13.29833 l 0,13.303572 -1.964286,0 -1.964285,0 0,-15.803572 z"
             id="path3829"
             inkscape:connector-curvature="0"
             transform="translate(97.985203,382.56623)" />
          <path
             style="opacity:0.70000012;fill:#ffffff;fill-opacity:1;stroke:none"
             d="m 60.736816,25.215438 0,-15.8035711 2.813738,0 2.813739,0 6.873761,12.9701301 c 3.780569,7.133572 6.971652,13.100089 7.091297,13.258929 0.171655,0.227889 0.218732,-2.507606 0.223214,-12.970131 l 0.0057,-13.2589281 1.964286,0 1.964285,0 0,15.8035711 0,15.803572 -2.746103,0 -2.746104,0 -7.030682,-13.298331 c -3.866875,-7.314081 -7.09095,-13.300689 -7.164611,-13.303571 -0.07366,-0.0029 -0.133928,5.981366 -0.133928,13.29833 l 0,13.303572 -1.964286,0 -1.964285,0 0,-15.803572 z"
             id="path3831"
             inkscape:connector-curvature="0"
             transform="translate(97.985203,382.56623)" />
          <path
             style="opacity:0.70000012;fill:#ffffff;fill-opacity:1;stroke:none"
             d="m 93.058244,29.14401 0,-11.875 1.875,0 1.875,0 0,11.875 0,11.875 -1.875,0 -1.875,0 0,-11.875 z"
             id="path3833"
             inkscape:connector-curvature="0"
             transform="translate(97.985203,382.56623)" />
          <path
             style="opacity:0.70000012;fill:#ffffff;fill-opacity:1;stroke:none"
             d="m 93.058244,29.14401 0,-11.875 1.875,0 1.875,0 0,11.875 0,11.875 -1.875,0 -1.875,0 0,-11.875 z"
             id="path3835"
             inkscape:connector-curvature="0"
             transform="translate(97.985203,382.56623)" />
          <path
             style="opacity:0.70000012;fill:#ffffff;fill-opacity:1;stroke:none"
             d="m 140.85309,41.269456 c -5.0295,-0.908663 -9.0045,-4.475446 -10.62756,-9.536161 -1.21342,-3.783457 -1.21929,-9.363347 -0.0137,-13.028238 1.54683,-4.702254 4.89161,-8.031292 9.37233,-9.3282294 1.21976,-0.3530593 1.82431,-0.4110651 4.27766,-0.4104377 3.20123,8.178e-4 4.2823,0.2073462 6.42858,1.2281061 3.70138,1.760368 6.33658,5.141109 7.53267,9.663799 0.42739,1.616066 0.47372,2.108048 0.48765,5.178572 0.0123,2.712777 -0.051,3.679207 -0.31582,4.821428 -1.46703,6.327472 -5.5016,10.41662 -11.27012,11.422566 -1.90443,0.332104 -3.99279,0.328047 -5.87168,-0.01141 l 0,5e-6 z m 5.67988,-3.381016 c 3.317,-0.863971 5.97474,-3.790066 6.96879,-7.672438 0.70882,-2.768382 0.77399,-6.382556 0.16822,-9.329926 -1.28999,-6.276536 -6.15598,-9.747918 -11.95102,-8.52583 -3.82252,0.80611 -6.50094,3.693186 -7.61881,8.212335 -0.57172,2.31121 -0.57517,6.964527 -0.007,9.249152 1.04354,4.195187 3.60983,7.140586 7.02074,8.057893 1.28968,0.346841 4.1036,0.351418 5.41895,0.0088 l 0,-7e-6 z"
             id="path3837"
             inkscape:connector-curvature="0"
             transform="translate(97.985203,382.56623)" />
          <path
             style="opacity:0.70000012;fill:#ffffff;fill-opacity:1;stroke:none"
             d="m 170.71351,41.27999 c -1.81385,-0.282634 -3.29528,-0.643393 -5.19991,-1.26628 l -1.38393,-0.4526 0,-2.038908 c 0,-1.121398 0.0425,-2.038907 0.0944,-2.038907 0.0519,0 0.59327,0.251838 1.20302,0.559641 2.8714,1.449477 5.51991,2.109381 8.48878,2.115066 2.4385,0.0047 4.1065,-0.341148 5.41638,-1.122953 1.70238,-1.016064 2.67052,-3.110923 2.39557,-5.183557 -0.36821,-2.77572 -2.06573,-4.084466 -6.5267,-5.03192 -5.34332,-1.134856 -6.9737,-1.715119 -8.65675,-3.081004 -2.20909,-1.792797 -3.09521,-4.942651 -2.31802,-8.239803 0.37377,-1.585696 1.04672,-2.735429 2.2568,-3.855751 1.98906,-1.8415205 4.15243,-2.5829849 7.9144,-2.7125472 2.84394,-0.097945 5.16676,0.1832283 7.99107,0.9673066 l 1.74107,0.4833516 0,1.995701 0,1.9957 -1.41729,-0.612754 c -5.07031,-2.192107 -10.80644,-2.117912 -13.19657,0.170691 -1.05421,1.009436 -1.36372,1.806264 -1.36614,3.517118 -0.002,1.339956 0.056,1.616717 0.49368,2.361325 0.84511,1.437687 2.00236,1.908258 7.54562,3.06827 4.62341,0.967517 6.98406,2.199482 8.46547,4.417914 2.28823,3.426652 1.74812,8.722914 -1.16066,11.38138 -1.10482,1.009736 -2.69273,1.847318 -4.26131,2.247731 -2.54071,0.648566 -5.77352,0.783582 -8.51896,0.355789 l 0,0 z"
             id="path3839"
             inkscape:connector-curvature="0"
             transform="translate(97.985203,382.56623)" />
          <path
             style="opacity:1;fill:#ffffff;fill-opacity:1;stroke:none"
             d="m 60.736816,25.215438 0,-15.8035711 2.813738,0 2.813739,0 6.873761,12.9701301 c 3.780569,7.133572 6.971652,13.100089 7.091297,13.258929 0.171655,0.227889 0.218732,-2.507606 0.223214,-12.970131 l 0.0057,-13.2589281 1.964286,0 1.964285,0 0,15.8035711 0,15.803572 -2.746103,0 -2.746104,0 -7.030682,-13.298331 c -3.866875,-7.314081 -7.09095,-13.300689 -7.164611,-13.303571 -0.07366,-0.0029 -0.133928,5.981366 -0.133928,13.29833 l 0,13.303572 -1.964286,0 -1.964285,0 0,-15.803572 z"
             id="path3843"
             inkscape:connector-curvature="0"
             transform="translate(97.985203,382.56623)" />
          <path
             style="fill:#ffffff;fill-opacity:0;stroke:none"
             d="m 140.85309,41.269456 c -5.0295,-0.908663 -9.0045,-4.475446 -10.62756,-9.536161 -1.21342,-3.783457 -1.21929,-9.363347 -0.0137,-13.028238 1.54683,-4.702254 4.89161,-8.031292 9.37233,-9.3282294 1.21976,-0.3530593 1.82431,-0.4110651 4.27766,-0.4104377 3.20123,8.178e-4 4.2823,0.2073462 6.42858,1.2281061 3.70138,1.760368 6.33658,5.141109 7.53267,9.663799 0.42739,1.616066 0.47372,2.108048 0.48765,5.178572 0.0123,2.712777 -0.051,3.679207 -0.31582,4.821428 -1.46703,6.327472 -5.5016,10.41662 -11.27012,11.422566 -1.90443,0.332104 -3.99279,0.328047 -5.87168,-0.01141 l 0,5e-6 z m 5.67988,-3.381016 c 3.29009,-0.856963 5.98296,-3.818682 6.97647,-7.673002 1.17071,-4.541729 0.50281,-10.50531 -1.52854,-13.648201 -2.26544,-3.505074 -6.09952,-5.087803 -10.21314,-4.216038 -4.90146,1.038725 -7.75532,5.158596 -8.10712,11.703525 -0.19651,3.656064 0.54942,7.276532 1.98668,9.642512 1.21263,1.996208 3.32145,3.604286 5.49388,4.189347 1.26529,0.340757 4.08691,0.34173 5.39177,0.0019 z"
             id="path3845"
             inkscape:connector-curvature="0"
             transform="translate(97.985203,382.56623)" />
          <path
             style="fill:#ffffff;fill-opacity:1;stroke:none"
             d="m 140.85309,41.269456 c -5.0295,-0.908663 -9.0045,-4.475446 -10.62756,-9.536161 -1.21342,-3.783457 -1.21929,-9.363347 -0.0137,-13.028238 1.54683,-4.702254 4.89161,-8.031292 9.37233,-9.3282294 1.21976,-0.3530593 1.82431,-0.4110651 4.27766,-0.4104377 3.20123,8.178e-4 4.2823,0.2073462 6.42858,1.2281061 3.70138,1.760368 6.33658,5.141109 7.53267,9.663799 0.42739,1.616066 0.47372,2.108048 0.48765,5.178572 0.0123,2.712777 -0.051,3.679207 -0.31582,4.821428 -1.46703,6.327472 -5.5016,10.41662 -11.27012,11.422566 -1.90443,0.332104 -3.99279,0.328047 -5.87168,-0.01141 l 0,5e-6 z m 5.67988,-3.381016 c 3.29009,-0.856963 5.98296,-3.818682 6.97647,-7.673002 1.17071,-4.541729 0.50281,-10.50531 -1.52854,-13.648201 -2.26544,-3.505074 -6.09952,-5.087803 -10.21314,-4.216038 -4.90146,1.038725 -7.75532,5.158596 -8.10712,11.703525 -0.19651,3.656064 0.54942,7.276532 1.98668,9.642512 1.21263,1.996208 3.32145,3.604286 5.49388,4.189347 1.26529,0.340757 4.08691,0.34173 5.39177,0.0019 z"
             id="path3847"
             inkscape:connector-curvature="0"
             transform="translate(97.985203,382.56623)" />
        </g>
      </g>
      <text
         id="text3293"
         y="58.433598"
         x="71.428574"
         style="font-size:43px;font-style:normal;font-variant:normal;font-weight:bold;font-stretch:normal;fill:#ffffff;fill-opacity:1;stroke:none;font-family:Sans;-inkscape-font-specification:Sans Bold"
         xml:space="preserve"><tspan
           style="font-size:43.50000000000000000px;font-style:normal;font-variant:normal;font-weight:normal;font-stretch:normal;font-family:Myriad Web;-inkscape-font-specification:Myriad Web;fill:#ffffff;fill-opacity:1"
           y="58.433598"
           x="71.428574"
           id="tspan3295"
           sodipodi:role="line">NixOS</tspan></text>
    </g>
    <flowRoot
       xml:space="preserve"
       id="flowRoot2410"
       style="font-size:40px;font-style:normal;font-weight:normal;fill:#000000;fill-opacity:1;stroke:none;font-family:Bitstream Vera Sans"><flowRegion
         id="flowRegion2412"><rect
           id="rect2414"
           width="175"
           height="61.42857"
           x="359.64285"
           y="229.1479" /></flowRegion><flowPara
         id="flowPara2416" /></flowRoot>    <flowRoot
       xml:space="preserve"
       id="flowRoot2426"
       style="font-size:40px;font-style:normal;font-weight:normal;fill:#000000;fill-opacity:1;stroke:none;font-family:Bitstream Vera Sans"><flowRegion
         id="flowRegion2428"><rect
           id="rect2430"
           width="276.78571"
           height="67.5"
           x="326.42856"
           y="327.00504" /></flowRegion><flowPara
         id="flowPara2432" /></flowRoot>    <flowRoot
       xml:space="preserve"
       id="flowRoot2434"
       style="font-size:40px;font-style:normal;font-weight:normal;fill:#000000;fill-opacity:1;stroke:none;font-family:Bitstream Vera Sans"><flowRegion
         id="flowRegion2436"><rect
           id="rect2438"
           width="292.14285"
           height="68.571426"
           x="299.64285"
           y="323.07648" /></flowRegion><flowPara
         id="flowPara2440" /></flowRoot>    <flowRoot
       xml:space="preserve"
       id="flowRoot2442"
       style="font-size:40px;font-style:normal;font-weight:normal;fill:#000000;fill-opacity:1;stroke:none;font-family:Bitstream Vera Sans"><flowRegion
         id="flowRegion2444"><rect
           id="rect2446"
           width="254.64285"
           height="126.07143"
           x="272.14285"
           y="203.43361" /></flowRegion><flowPara
         id="flowPara2448" /></flowRoot>  </g>
</svg>
