<?xml version="1.0" encoding="UTF-8" standalone="no"?>
<!-- Created with Inkscape (http://www.inkscape.org/) -->
<svg
   xmlns:dc="http://purl.org/dc/elements/1.1/"
   xmlns:cc="http://web.resource.org/cc/"
   xmlns:rdf="http://www.w3.org/1999/02/22-rdf-syntax-ns#"
   xmlns:svg="http://www.w3.org/2000/svg"
   xmlns="http://www.w3.org/2000/svg"
   xmlns:xlink="http://www.w3.org/1999/xlink"
   xmlns:sodipodi="http://inkscape.sourceforge.net/DTD/sodipodi-0.dtd"
   xmlns:inkscape="http://www.inkscape.org/namespaces/inkscape"
   width="137.00000pt"
   height="133.00000pt"
   id="svg3103"
   sodipodi:version="0.32"
   inkscape:version="0.41.1"
   sodipodi:docbase="/home/melzi/Pics/weather"
   sodipodi:docname="weather_template.svg">
  <defs
     id="defs3105">
    <linearGradient
       inkscape:collect="always"
       id="linearGradient9611">
      <stop
         style="stop-color:#ffc800;stop-opacity:1;"
         offset="0"
         id="stop9613" />
      <stop
         style="stop-color:#ffc800;stop-opacity:0;"
         offset="1"
         id="stop9615" />
    </linearGradient>
    <linearGradient
       id="linearGradient3211">
      <stop
         style="stop-color:#b4b4b4;stop-opacity:1;"
         offset="0"
         id="stop3213" />
      <stop
         style="stop-color:#f0f0f0;stop-opacity:0;"
         offset="1"
         id="stop3215" />
    </linearGradient>
    <linearGradient
       id="linearGradient4161">
      <stop
         style="stop-color:#ffc800;stop-opacity:1;"
         offset="0"
         id="stop4163" />
      <stop
         style="stop-color:#ffc100;stop-opacity:0;"
         offset="1"
         id="stop4165" />
    </linearGradient>
    <linearGradient
       inkscape:collect="always"
       id="linearGradient5079">
      <stop
         style="stop-color:white;stop-opacity:1;"
         offset="0"
         id="stop5081" />
      <stop
         style="stop-color:white;stop-opacity:0"
         offset="1"
         id="stop5083" />
    </linearGradient>
    <linearGradient
       inkscape:collect="always"
       xlink:href="#linearGradient5079"
       id="linearGradient1554"
       gradientUnits="userSpaceOnUse"
       x1="547.49896"
       y1="146.65633"
       x2="555.45441"
       y2="143.83321" />
    <linearGradient
       inkscape:collect="always"
       xlink:href="#linearGradient5079"
       id="linearGradient1556"
       gradientUnits="userSpaceOnUse"
       gradientTransform="translate(57.00000,-24.00000)"
       x1="547.49896"
       y1="146.65633"
       x2="555.45441"
       y2="143.83321" />
    <linearGradient
       inkscape:collect="always"
       xlink:href="#linearGradient5079"
       id="linearGradient1558"
       gradientUnits="userSpaceOnUse"
       gradientTransform="translate(57.00000,-24.00000)"
       x1="547.49896"
       y1="146.65633"
       x2="555.45441"
       y2="143.83321" />
    <linearGradient
       inkscape:collect="always"
       xlink:href="#linearGradient5079"
       id="linearGradient1560"
       gradientUnits="userSpaceOnUse"
       gradientTransform="translate(57.00000,-24.00000)"
       x1="547.49896"
       y1="146.65633"
       x2="555.45441"
       y2="143.83321" />
    <linearGradient
       inkscape:collect="always"
       xlink:href="#linearGradient5079"
       id="linearGradient1562"
       gradientUnits="userSpaceOnUse"
       x1="547.49896"
       y1="146.65633"
       x2="555.45441"
       y2="143.83321" />
    <linearGradient
       inkscape:collect="always"
       xlink:href="#linearGradient5079"
       id="linearGradient1564"
       gradientUnits="userSpaceOnUse"
       gradientTransform="translate(57.00000,-24.00000)"
       x1="547.49896"
       y1="146.65633"
       x2="555.45441"
       y2="143.83321" />
    <linearGradient
       inkscape:collect="always"
       xlink:href="#linearGradient5079"
       id="linearGradient1566"
       gradientUnits="userSpaceOnUse"
       gradientTransform="translate(57.00000,-24.00000)"
       x1="547.49896"
       y1="146.65633"
       x2="555.45441"
       y2="143.83321" />
    <linearGradient
       inkscape:collect="always"
       xlink:href="#linearGradient5079"
       id="linearGradient1568"
       gradientUnits="userSpaceOnUse"
       gradientTransform="translate(57.00000,-24.00000)"
       x1="547.49896"
       y1="146.65633"
       x2="555.45441"
       y2="143.83321" />
    <linearGradient
       inkscape:collect="always"
       xlink:href="#linearGradient9611"
       id="linearGradient1570"
       gradientUnits="userSpaceOnUse"
       x1="208.62442"
       y1="119.7196"
       x2="208.62442"
       y2="163.79573" />
    <linearGradient
       inkscape:collect="always"
       xlink:href="#linearGradient5079"
       id="linearGradient1572"
       gradientUnits="userSpaceOnUse"
       x1="847.01324"
       y1="23.273985"
       x2="847.01324"
       y2="64.715645" />
    <linearGradient
       inkscape:collect="always"
       xlink:href="#linearGradient3211"
       id="linearGradient1574"
       gradientUnits="userSpaceOnUse"
       x1="440.10486"
       y1="613.38153"
       x2="440.10486"
       y2="693.25641" />
    <linearGradient
       inkscape:collect="always"
       xlink:href="#linearGradient4161"
       id="linearGradient1576"
       gradientUnits="userSpaceOnUse"
       x1="674.64966"
       y1="874.65875"
       x2="674.64966"
       y2="954.76569" />
  </defs>
  <sodipodi:namedview
     id="base"
     pagecolor="#ffffff"
     bordercolor="#666666"
     borderopacity="1.0"
     inkscape:pageopacity="0.0"
     inkscape:pageshadow="2"
     inkscape:zoom="4.5954887"
     inkscape:cx="85.625000"
     inkscape:cy="83.125000"
     inkscape:document-units="px"
     inkscape:current-layer="layer9"
     inkscape:window-width="1278"
     inkscape:window-height="944"
     inkscape:window-x="0"
     inkscape:window-y="27"
     showborder="false" />
  <metadata
     id="metadata3108">
    <rdf:RDF
       id="RDF30">
      <cc:Work
         rdf:about=""
         id="Work32">
        <dc:format
           id="format34">image/svg+xml</dc:format>
        <dc:type
           rdf:resource="http://purl.org/dc/dcmitype/StillImage"
           id="type36" />
        <dc:title
           id="title38">weather</dc:title>
        <dc:date
           id="date40">11.16.2006</dc:date>
        <dc:creator
           id="creator42">
          <cc:Agent
             id="Agent44">
            <dc:title
               id="title46">Raoul René Melcer</dc:title>
          </cc:Agent>
        </dc:creator>
        <cc:license
           rdf:resource="http://web.resource.org/cc/PublicDomain"
           id="license48" />
        <dc:publisher
           id="publisher50">
          <cc:Agent
             id="Agent52">
            <dc:title
               id="title54">Raoul René Melcer</dc:title>
          </cc:Agent>
        </dc:publisher>
        <dc:source
           id="source56">melcer@gmx.ch</dc:source>
        <dc:relation
           id="relation58" />
        <dc:subject
           id="subject60">
          <rdf:Bag
             id="Bag62">
            <rdf:li
               id="li11738">snow</rdf:li>
            <rdf:li
               id="li11740">rain</rdf:li>
            <rdf:li
               id="li11742">thunder</rdf:li>
            <rdf:li
               id="li11744">sun</rdf:li>
            <rdf:li
               id="li11746">moon</rdf:li>
            <rdf:li
               id="li11748">cloud</rdf:li>
            <rdf:li
               id="li11750">weather</rdf:li>
            <rdf:li
               id="li11752">symbol</rdf:li>
            <rdf:li
               id="li11754">card</rdf:li>
            <rdf:li
               id="li11756">map</rdf:li>
          </rdf:Bag>
        </dc:subject>
        <dc:rights
           id="rights86">
          <cc:Agent
             id="Agent88">
            <dc:title
               id="title90">Raoul René Melcer</dc:title>
          </cc:Agent>
        </dc:rights>
        <dc:identifier
           id="identifier92">melcer@gmx.ch</dc:identifier>
        <dc:description
           id="description94">for weather application or map. you must deletet/hidden the groups/layers you dont use.</dc:description>
      </cc:Work>
      <cc:License
         rdf:about="http://web.resource.org/cc/PublicDomain"
         id="License96">
        <cc:permits
           rdf:resource="http://web.resource.org/cc/Reproduction"
           id="permits98" />
        <cc:permits
           rdf:resource="http://web.resource.org/cc/Distribution"
           id="permits100" />
        <cc:permits
           rdf:resource="http://web.resource.org/cc/DerivativeWorks"
           id="permits102" />
      </cc:License>
    </rdf:RDF>
  </metadata>
  <g
     inkscape:label="sun"
     inkscape:groupmode="layer"
     id="layer1"
     style="opacity:1;display:inline">
    <g
       transform="translate(6.995731e-2,-4.800000)"
       id="g2277">
      <path
         transform="matrix(0.779251,0.000000,0.000000,0.779251,-482.7786,-673.7557)"
         d="M 703.07023,952.64650 L 710.48664,967.99778 L 696.05526,958.92033 L 699.42096,975.63371 L 687.70043,963.25250 L 686.80395,980.27781 L 678.53073,965.37081 L 673.42838,981.63830 L 669.12230,965.14216 L 660.13470,979.62967 L 660.06632,962.58090 L 647.75818,974.37814 L 651.93181,957.84799 L 637.07650,966.21368 L 645.22988,951.24079 L 628.76082,955.64930 L 640.38166,943.17448 L 623.33365,943.34879 L 637.69176,934.15587 L 621.13599,930.08504 L 637.32920,924.75165 L 622.30594,916.69146 L 639.31677,915.55272 L 626.76998,904.00963 L 643.52957,907.13708 L 634.24762,892.83637 L 649.70291,900.03351 L 644.26901,883.87376 L 657.44889,894.68836 L 656.20447,877.68494 L 666.28080,891.43749 L 669.30405,874.65878 L 675.64369,890.48515 L 682.74466,874.98543 L 684.94927,891.89119 L 695.68177,878.64436 L 693.61283,895.56726 L 707.30251,885.40567 L 701.09001,901.28238 L 716.87668,894.84452 L 706.91099,908.67745 L 723.80272,906.36783 L 710.71001,917.28781 L 727.64544,919.25155 L 712.24837,926.57243 L 728.16337,932.68615 L 711.42940,935.94793 L 725.32399,945.82748 L 708.30458,944.82522 L 719.30570,957.84983 L 703.07023,952.64650 z "
         inkscape:randomized="0.0000000"
         inkscape:rounded="0.0000000"
         inkscape:flatsided="false"
         sodipodi:arg2="0.84111248"
         sodipodi:arg1="0.71544878"
         sodipodi:r2="53.635330"
         sodipodi:r1="37.544731"
         sodipodi:cy="928.01880"
         sodipodi:cx="674.73151"
         sodipodi:sides="25"
         id="path2280"
         style="fill:#fff000;fill-opacity:1.0000000;fill-rule:evenodd;stroke:#ffc800;stroke-width:1.0266268;stroke-miterlimit:4.0000000;stroke-opacity:1.0000000"
         sodipodi:type="star" />
      <path
         sodipodi:type="star"
         style="fill:url(#linearGradient1576);fill-opacity:1.0000000;fill-rule:evenodd;stroke:none;stroke-width:1.2516643;stroke-miterlimit:4.0000000;stroke-opacity:1.0000000"
         id="path2282"
         sodipodi:sides="25"
         sodipodi:cx="674.73151"
         sodipodi:cy="928.01880"
         sodipodi:r1="37.544731"
         sodipodi:r2="53.635330"
         sodipodi:arg1="0.71544878"
         sodipodi:arg2="0.84111248"
         inkscape:flatsided="false"
         inkscape:rounded="0.0000000"
         inkscape:randomized="0.0000000"
         d="M 703.07023,952.64650 L 710.48664,967.99778 L 696.05526,958.92033 L 699.42096,975.63371 L 687.70043,963.25250 L 686.80395,980.27781 L 678.53073,965.37081 L 673.42838,981.63830 L 669.12230,965.14216 L 660.13470,979.62967 L 660.06632,962.58090 L 647.75818,974.37814 L 651.93181,957.84799 L 637.07650,966.21368 L 645.22988,951.24079 L 628.76082,955.64930 L 640.38166,943.17448 L 623.33365,943.34879 L 637.69176,934.15587 L 621.13599,930.08504 L 637.32920,924.75165 L 622.30594,916.69146 L 639.31677,915.55272 L 626.76998,904.00963 L 643.52957,907.13708 L 634.24762,892.83637 L 649.70291,900.03351 L 644.26901,883.87376 L 657.44889,894.68836 L 656.20447,877.68494 L 666.28080,891.43749 L 669.30405,874.65878 L 675.64369,890.48515 L 682.74466,874.98543 L 684.94927,891.89119 L 695.68177,878.64436 L 693.61283,895.56726 L 707.30251,885.40567 L 701.09001,901.28238 L 716.87668,894.84452 L 706.91099,908.67745 L 723.80272,906.36783 L 710.71001,917.28781 L 727.64544,919.25155 L 712.24837,926.57243 L 728.16337,932.68615 L 711.42940,935.94793 L 725.32399,945.82748 L 708.30458,944.82522 L 719.30570,957.84983 L 703.07023,952.64650 z "
         transform="matrix(0.639149,0.000000,0.000000,0.639149,-388.2585,-543.7198)" />
    </g>
  </g>
  <g
     inkscape:groupmode="layer"
     id="layer2"
     inkscape:label="moon"
     style="display:inline">
    <g
       style="display:inline"
       id="g2094"
       transform="translate(0.350465,2.306300)">
      <path
         style="fill:#b4b4b4;fill-opacity:1.0000000;fill-rule:evenodd;stroke:#646464;stroke-width:0.78490639;stroke-miterlimit:4.0000000;stroke-opacity:1.0000000"
         d="M 47.576535,12.477715 C 24.432343,12.477715 5.6637693,31.246309 5.6637595,54.390491 C 5.6637595,77.534682 24.432343,96.333956 47.576535,96.333926 C 50.952564,96.333926 65.017459,97.729892 57.387865,95.138171 C 49.758270,92.546439 35.270949,74.148302 35.270949,54.390491 C 35.270949,34.632689 49.758270,16.234542 57.387865,13.642811 C 65.017459,11.051079 50.952564,12.477715 47.576535,12.477715 z "
         id="path5653"
         sodipodi:nodetypes="csszzzc" />
      <path
         sodipodi:nodetypes="csszzzc"
         id="path5655"
         d="M 47.576535,12.477715 C 24.432343,12.477715 5.6637693,31.246309 5.6637595,54.390491 C 5.6637595,77.534682 24.432343,96.333956 47.576535,96.333926 C 50.952564,96.333926 65.017459,97.729892 57.387865,95.138171 C 49.758270,92.546439 35.270949,74.148302 35.270949,54.390491 C 35.270949,34.632689 49.758270,16.234542 57.387865,13.642811 C 65.017459,11.051079 50.952564,12.477715 47.576535,12.477715 z "
         style="fill:#f0f0f0;fill-opacity:1.0000000;fill-rule:evenodd;stroke:#c8c8c8;stroke-width:0.78490639;stroke-miterlimit:4.0000000;stroke-opacity:1.0000000" />
      <path
         transform="matrix(0.981133,0.000000,0.000000,0.981133,-401.8437,-586.4120)"
         sodipodi:nodetypes="csszzzc"
         id="path5657"
         d="M 454.43484,614.17676 C 434.56456,614.17676 418.45095,631.46100 418.45094,652.77480 C 418.45094,674.08858 434.56456,691.40107 454.43484,691.40105 C 457.33331,691.40105 465.89946,694.79211 459.34912,692.40536 C 452.79880,690.01860 441.76448,670.97002 441.76448,652.77480 C 441.76448,634.57957 452.44789,616.93464 458.99821,614.54789 C 465.54855,612.16113 457.33331,614.17676 454.43484,614.17676 z "
         style="opacity:0.80000001;fill:url(#linearGradient1574);fill-opacity:1.0000000;fill-rule:evenodd;stroke:none;stroke-width:0.69792390;stroke-miterlimit:4.0000000;stroke-opacity:1.0000000" />
    </g>
  </g>
  <g
     inkscape:groupmode="layer"
     id="layer9"
     inkscape:label="overcloud">
    <use
       height="166.00000"
       width="166.00000"
       transform="translate(5.431937,-18.03403)"
       id="use1401"
       xlink:href="#g2284"
       y="0.0000000"
       x="0.0000000" />
  </g>
  <g
     inkscape:groupmode="layer"
     id="layer3"
     inkscape:label="cloud">
    <g
       style="display:inline"
       transform="translate(-174.6637,-5.356300)"
       id="g2284">
      <path
         sodipodi:nodetypes="ccccc"
         id="path2286"
         d="M 180.36997,107.16857 L 334.43478,107.16857 C 353.53947,75.902194 314.92718,61.258763 300.04217,82.953377 C 278.80512,37.767573 220.96397,45.210516 217.21918,78.040149 C 192.50978,54.860884 164.57375,87.011932 180.36997,107.16857 z "
         style="fill:#ebebeb;fill-opacity:1.0000000;fill-rule:evenodd;stroke:#bebebe;stroke-width:0.80000001;stroke-linecap:butt;stroke-linejoin:miter;stroke-miterlimit:4.0000000;stroke-opacity:1.0000000" />
      <path
         transform="translate(-591.6695,31.18711)"
         d="M 843.81250,23.281250 C 827.41871,23.576077 813.72665,32.629552 812.06250,47.218750 C 811.91837,48.418344 811.11312,49.435515 809.97861,49.851063 C 808.84409,50.266611 807.57235,50.010199 806.68750,49.187500 C 801.00041,43.852581 795.46333,41.941250 790.50000,42.000000 C 785.53667,42.058750 780.99986,44.159785 777.46875,47.500000 C 770.73281,53.871796 768.10215,64.250471 773.78125,72.750000 L 924.15625,72.750000 C 927.81289,66.169830 928.63636,60.757512 927.75000,56.625000 C 926.79318,52.163961 923.99968,48.887581 920.15625,46.843750 C 912.46938,42.756087 900.89474,44.091354 894.37500,53.593750 C 893.72688,54.548056 892.61669,55.081402 891.46665,54.990949 C 890.31662,54.900497 889.30346,54.200147 888.81250,53.156250 C 878.70001,31.640025 860.20329,22.986477 843.81250,23.281250 z "
         id="path2288"
         style="fill:url(#linearGradient1572);fill-opacity:1.0000000;fill-rule:evenodd;stroke:none;stroke-width:0.80000001;stroke-linecap:butt;stroke-linejoin:miter;stroke-miterlimit:4.0000000;stroke-opacity:1.0000000"
         inkscape:original="M 843.75 20.0625 C 826.16698 20.378714 810.74739 30.428934 808.875 46.84375 C 784.16561 23.664485 756.23503 55.812109 772.03125 75.96875 L 926.09375 75.96875 C 945.19841 44.702373 906.60376 30.086636 891.71875 51.78125 C 881.10023 29.188348 861.33302 19.746286 843.75 20.0625 z "
         inkscape:radius="-3.2109792"
         sodipodi:type="inkscape:offset" />
    </g>
  </g>
  <g
     inkscape:groupmode="layer"
     id="layer4"
     inkscape:label="thunder"
     style="opacity:1;display:inline">
    <g
       style="stroke-width:0.80000001;stroke-miterlimit:4.0000000;display:inline"
       transform="translate(-130.8150,-14.41030)"
       id="g2605">
      <path
         style="fill:#fff000;fill-opacity:1.0000000;fill-rule:evenodd;stroke:#ffc800;stroke-linecap:butt;stroke-linejoin:miter;stroke-opacity:1.0000000"
         d="M 213.57143,117.00504 L 229.28571,117.00504 L 212.93750,145.32097 L 207.57818,142.22677 L 187.78457,176.51030 L 200.68269,128.37386 L 206.14194,131.52576 L 213.57143,117.00504 z "
         id="path2607" />
      <path
         id="path2609"
         d="M 214.77394,119.89818 L 224.18276,119.71960 L 211.73589,141.43114 L 207.18721,138.80496 L 193.06608,163.79573 L 202.40613,132.04739 L 207.03964,134.72254 L 214.77394,119.89818 z "
         style="opacity:0.80000001;fill:url(#linearGradient1570);fill-opacity:1.0000000;fill-rule:evenodd;stroke:none;stroke-linecap:butt;stroke-linejoin:miter;stroke-opacity:1.0000000"
         sodipodi:nodetypes="cccccccc" />
    </g>
  </g>
  <g
     inkscape:groupmode="layer"
     id="layer5"
     inkscape:label="rain"
     style="opacity:1">
    <g
       style="display:inline"
       id="g2290"
       transform="translate(-373.1027,-224.5594)">
      <g
         id="g2292"
         transform="translate(-147.0610,195.2031)"
         style="stroke-width:0.80000001;stroke-miterlimit:4.0000000">
        <path
           sodipodi:nodetypes="cssc"
           id="path2294"
           d="M 557.34545,136.23915 C 557.34545,136.23915 547.39131,142.21868 546.35110,145.26500 C 544.09112,151.88353 550.04886,155.66460 555.06058,150.21200 C 557.24476,147.83569 557.34545,136.23915 557.34545,136.23915 z "
           style="fill:#00f0ff;fill-opacity:1.0000000;fill-rule:evenodd;stroke:#00c8ff;stroke-linecap:butt;stroke-linejoin:miter;stroke-opacity:1.0000000" />
        <path
           style="opacity:0.80000001;fill:url(#linearGradient1562);fill-opacity:1.0000000;fill-rule:evenodd;stroke:none;stroke-linecap:butt;stroke-linejoin:miter;stroke-opacity:1.0000000"
           d="M 555.45439,139.41379 C 555.45439,139.41379 548.56088,143.55478 547.84051,145.66443 C 546.27541,150.24795 550.40131,152.86644 553.87205,149.09036 C 555.38466,147.44470 555.45439,139.41379 555.45439,139.41379 z "
           id="path2296"
           sodipodi:nodetypes="cssc" />
      </g>
      <g
         id="g2298"
         transform="translate(-204.4146,219.2031)">
        <path
           style="fill:#00f0ff;fill-opacity:1.0000000;fill-rule:evenodd;stroke:#00c8ff;stroke-width:0.80000001;stroke-linecap:butt;stroke-linejoin:miter;stroke-miterlimit:4.0000000;stroke-opacity:1.0000000"
           d="M 614.34545,112.23915 C 614.34545,112.23915 604.39131,118.21868 603.35110,121.26500 C 601.09112,127.88353 607.04886,131.66460 612.06058,126.21200 C 614.24476,123.83569 614.34545,112.23915 614.34545,112.23915 z "
           id="path2300"
           sodipodi:nodetypes="cssc" />
        <path
           sodipodi:nodetypes="cssc"
           id="path2302"
           d="M 612.45439,115.41379 C 612.45439,115.41379 605.56088,119.55478 604.84051,121.66443 C 603.27541,126.24795 607.40131,128.86644 610.87205,125.09036 C 612.38466,123.44470 612.45439,115.41379 612.45439,115.41379 z "
           style="opacity:0.80000001;fill:url(#linearGradient1564);fill-opacity:1.0000000;fill-rule:evenodd;stroke:none;stroke-width:0.80000001;stroke-linecap:butt;stroke-linejoin:miter;stroke-miterlimit:4.0000000;stroke-opacity:1.0000000" />
      </g>
      <g
         transform="translate(-152.4649,219.2031)"
         id="g2304">
        <path
           sodipodi:nodetypes="cssc"
           id="path2306"
           d="M 614.34545,112.23915 C 614.34545,112.23915 604.39131,118.21868 603.35110,121.26500 C 601.09112,127.88353 607.04886,131.66460 612.06058,126.21200 C 614.24476,123.83569 614.34545,112.23915 614.34545,112.23915 z "
           style="fill:#00f0ff;fill-opacity:1.0000000;fill-rule:evenodd;stroke:#00c8ff;stroke-width:0.80000001;stroke-linecap:butt;stroke-linejoin:miter;stroke-miterlimit:4.0000000;stroke-opacity:1.0000000" />
        <path
           style="opacity:0.80000001;fill:url(#linearGradient1566);fill-opacity:1.0000000;fill-rule:evenodd;stroke:none;stroke-width:0.80000001;stroke-linecap:butt;stroke-linejoin:miter;stroke-miterlimit:4.0000000;stroke-opacity:1.0000000"
           d="M 612.45439,115.41379 C 612.45439,115.41379 605.56088,119.55478 604.84051,121.66443 C 603.27541,126.24795 607.40131,128.86644 610.87205,125.09036 C 612.38466,123.44470 612.45439,115.41379 612.45439,115.41379 z "
           id="path2308"
           sodipodi:nodetypes="cssc" />
      </g>
      <g
         transform="translate(-103.1468,219.2031)"
         id="g2310">
        <path
           sodipodi:nodetypes="cssc"
           id="path2312"
           d="M 614.34545,112.23915 C 614.34545,112.23915 604.39131,118.21868 603.35110,121.26500 C 601.09112,127.88353 607.04886,131.66460 612.06058,126.21200 C 614.24476,123.83569 614.34545,112.23915 614.34545,112.23915 z "
           style="fill:#00f0ff;fill-opacity:1.0000000;fill-rule:evenodd;stroke:#00c8ff;stroke-width:0.80000001;stroke-linecap:butt;stroke-linejoin:miter;stroke-miterlimit:4.0000000;stroke-opacity:1.0000000" />
        <path
           style="opacity:0.80000001;fill:url(#linearGradient1568);fill-opacity:1.0000000;fill-rule:evenodd;stroke:none;stroke-width:0.80000001;stroke-linecap:butt;stroke-linejoin:miter;stroke-miterlimit:4.0000000;stroke-opacity:1.0000000"
           d="M 612.45439,115.41379 C 612.45439,115.41379 605.56088,119.55478 604.84051,121.66443 C 603.27541,126.24795 607.40131,128.86644 610.87205,125.09036 C 612.38466,123.44470 612.45439,115.41379 612.45439,115.41379 z "
           id="path2314"
           sodipodi:nodetypes="cssc" />
      </g>
    </g>
  </g>
  <g
     inkscape:groupmode="layer"
     id="layer6"
     inkscape:label="rainfall">
    <g
       style="display:inline"
       transform="translate(-385.7353,-202.3260)"
       id="g2347">
      <g
         style="stroke-width:0.80000001;stroke-miterlimit:4.0000000"
         transform="translate(-147.0610,195.2031)"
         id="g2349">
        <path
           style="fill:#00f0ff;fill-opacity:1.0000000;fill-rule:evenodd;stroke:#00c8ff;stroke-linecap:butt;stroke-linejoin:miter;stroke-opacity:1.0000000"
           d="M 557.34545,136.23915 C 557.34545,136.23915 547.39131,142.21868 546.35110,145.26500 C 544.09112,151.88353 550.04886,155.66460 555.06058,150.21200 C 557.24476,147.83569 557.34545,136.23915 557.34545,136.23915 z "
           id="path2351"
           sodipodi:nodetypes="cssc" />
        <path
           sodipodi:nodetypes="cssc"
           id="path2353"
           d="M 555.45439,139.41379 C 555.45439,139.41379 548.56088,143.55478 547.84051,145.66443 C 546.27541,150.24795 550.40131,152.86644 553.87205,149.09036 C 555.38466,147.44470 555.45439,139.41379 555.45439,139.41379 z "
           style="opacity:0.80000001;fill:url(#linearGradient1554);fill-opacity:1.0000000;fill-rule:evenodd;stroke:none;stroke-linecap:butt;stroke-linejoin:miter;stroke-opacity:1.0000000" />
      </g>
      <g
         transform="translate(-204.4146,219.2031)"
         id="g2355">
        <path
           sodipodi:nodetypes="cssc"
           id="path2357"
           d="M 614.34545,112.23915 C 614.34545,112.23915 604.39131,118.21868 603.35110,121.26500 C 601.09112,127.88353 607.04886,131.66460 612.06058,126.21200 C 614.24476,123.83569 614.34545,112.23915 614.34545,112.23915 z "
           style="fill:#00f0ff;fill-opacity:1.0000000;fill-rule:evenodd;stroke:#00c8ff;stroke-width:0.80000001;stroke-linecap:butt;stroke-linejoin:miter;stroke-miterlimit:4.0000000;stroke-opacity:1.0000000" />
        <path
           style="opacity:0.80000001;fill:url(#linearGradient1556);fill-opacity:1.0000000;fill-rule:evenodd;stroke:none;stroke-width:0.80000001;stroke-linecap:butt;stroke-linejoin:miter;stroke-miterlimit:4.0000000;stroke-opacity:1.0000000"
           d="M 612.45439,115.41379 C 612.45439,115.41379 605.56088,119.55478 604.84051,121.66443 C 603.27541,126.24795 607.40131,128.86644 610.87205,125.09036 C 612.38466,123.44470 612.45439,115.41379 612.45439,115.41379 z "
           id="path2359"
           sodipodi:nodetypes="cssc" />
      </g>
      <g
         id="g2361"
         transform="translate(-152.4649,219.2031)">
        <path
           style="fill:#00f0ff;fill-opacity:1.0000000;fill-rule:evenodd;stroke:#00c8ff;stroke-width:0.80000001;stroke-linecap:butt;stroke-linejoin:miter;stroke-miterlimit:4.0000000;stroke-opacity:1.0000000"
           d="M 614.34545,112.23915 C 614.34545,112.23915 604.39131,118.21868 603.35110,121.26500 C 601.09112,127.88353 607.04886,131.66460 612.06058,126.21200 C 614.24476,123.83569 614.34545,112.23915 614.34545,112.23915 z "
           id="path2363"
           sodipodi:nodetypes="cssc" />
        <path
           sodipodi:nodetypes="cssc"
           id="path2365"
           d="M 612.45439,115.41379 C 612.45439,115.41379 605.56088,119.55478 604.84051,121.66443 C 603.27541,126.24795 607.40131,128.86644 610.87205,125.09036 C 612.38466,123.44470 612.45439,115.41379 612.45439,115.41379 z "
           style="opacity:0.80000001;fill:url(#linearGradient1558);fill-opacity:1.0000000;fill-rule:evenodd;stroke:none;stroke-width:0.80000001;stroke-linecap:butt;stroke-linejoin:miter;stroke-miterlimit:4.0000000;stroke-opacity:1.0000000" />
      </g>
      <g
         id="g2367"
         transform="translate(-103.1468,219.2031)">
        <path
           style="fill:#00f0ff;fill-opacity:1.0000000;fill-rule:evenodd;stroke:#00c8ff;stroke-width:0.80000001;stroke-linecap:butt;stroke-linejoin:miter;stroke-miterlimit:4.0000000;stroke-opacity:1.0000000"
           d="M 614.34545,112.23915 C 614.34545,112.23915 604.39131,118.21868 603.35110,121.26500 C 601.09112,127.88353 607.04886,131.66460 612.06058,126.21200 C 614.24476,123.83569 614.34545,112.23915 614.34545,112.23915 z "
           id="path2369"
           sodipodi:nodetypes="cssc" />
        <path
           sodipodi:nodetypes="cssc"
           id="path2371"
           d="M 612.45439,115.41379 C 612.45439,115.41379 605.56088,119.55478 604.84051,121.66443 C 603.27541,126.24795 607.40131,128.86644 610.87205,125.09036 C 612.38466,123.44470 612.45439,115.41379 612.45439,115.41379 z "
           style="opacity:0.80000001;fill:url(#linearGradient1560);fill-opacity:1.0000000;fill-rule:evenodd;stroke:none;stroke-width:0.80000001;stroke-linecap:butt;stroke-linejoin:miter;stroke-miterlimit:4.0000000;stroke-opacity:1.0000000" />
      </g>
    </g>
  </g>
  <g
     inkscape:groupmode="layer"
     id="layer7"
     inkscape:label="snow"
     style="display:inline">
    <g
       style="display:inline"
       id="g2452"
       transform="translate(-4.366042,-593.2962)">
      <path
         transform="matrix(1.865685,0.173953,-0.173953,1.865685,-554.8767,-348.2611)"
         d="M 369.90523,534.67160 L 366.26722,533.40621 L 366.06753,537.25283 L 365.34439,533.46952 L 361.91328,535.21989 L 364.82815,532.70198 L 361.59672,530.60574 L 365.23473,531.87113 L 365.43442,528.02452 L 366.15756,531.80782 L 369.58867,530.05745 L 366.67381,532.57536 L 369.90523,534.67160 z "
         inkscape:randomized="0.0000000"
         inkscape:rounded="0.0000000"
         inkscape:flatsided="false"
         sodipodi:arg2="0.97869959"
         sodipodi:arg1="0.45510081"
         sodipodi:r2="0.92500001"
         sodipodi:r1="4.6250000"
         sodipodi:cy="532.63867"
         sodipodi:cx="365.75098"
         sodipodi:sides="6"
         id="path2397"
         style="fill:#ffffff;fill-opacity:1.0000000;fill-rule:evenodd;stroke:#c8c8c8;stroke-width:0.42694515;stroke-miterlimit:4.0000000;stroke-opacity:1.0000000"
         sodipodi:type="star" />
      <path
         sodipodi:type="star"
         style="fill:#ffffff;fill-opacity:1.0000000;fill-rule:evenodd;stroke:#c8c8c8;stroke-width:0.42694515;stroke-miterlimit:4.0000000;stroke-opacity:1.0000000"
         id="path2439"
         sodipodi:sides="6"
         sodipodi:cx="365.75098"
         sodipodi:cy="532.63867"
         sodipodi:r1="4.6250000"
         sodipodi:r2="0.92500001"
         sodipodi:arg1="0.45510081"
         sodipodi:arg2="0.97869959"
         inkscape:flatsided="false"
         inkscape:rounded="0.0000000"
         inkscape:randomized="0.0000000"
         d="M 369.90523,534.67160 L 366.26722,533.40621 L 366.06753,537.25283 L 365.34439,533.46952 L 361.91328,535.21989 L 364.82815,532.70198 L 361.59672,530.60574 L 365.23473,531.87113 L 365.43442,528.02452 L 366.15756,531.80782 L 369.58867,530.05745 L 366.67381,532.57536 L 369.90523,534.67160 z "
         transform="matrix(1.865685,0.173953,-0.173953,1.865685,-502.7104,-348.2611)" />
      <path
         transform="matrix(1.865685,0.173953,-0.173953,1.865685,-453.7599,-348.2611)"
         d="M 369.90523,534.67160 L 366.26722,533.40621 L 366.06753,537.25283 L 365.34439,533.46952 L 361.91328,535.21989 L 364.82815,532.70198 L 361.59672,530.60574 L 365.23473,531.87113 L 365.43442,528.02452 L 366.15756,531.80782 L 369.58867,530.05745 L 366.67381,532.57536 L 369.90523,534.67160 z "
         inkscape:randomized="0.0000000"
         inkscape:rounded="0.0000000"
         inkscape:flatsided="false"
         sodipodi:arg2="0.97869959"
         sodipodi:arg1="0.45510081"
         sodipodi:r2="0.92500001"
         sodipodi:r1="4.6250000"
         sodipodi:cy="532.63867"
         sodipodi:cx="365.75098"
         sodipodi:sides="6"
         id="path2443"
         style="fill:#ffffff;fill-opacity:1.0000000;fill-rule:evenodd;stroke:#c8c8c8;stroke-width:0.42694515;stroke-miterlimit:4.0000000;stroke-opacity:1.0000000"
         sodipodi:type="star" />
    </g>
  </g>
  <g
     inkscape:groupmode="layer"
     id="layer8"
     inkscape:label="sowfall"
     style="display:inline">
    <g
       style="display:inline"
       id="g2447"
       transform="translate(-4.366042,-593.2962)">
      <path
         transform="matrix(1.865685,0.173953,-0.173953,1.865685,-567.4122,-325.4569)"
         d="M 369.90523,534.67160 L 366.26722,533.40621 L 366.06753,537.25283 L 365.34439,533.46952 L 361.91328,535.21989 L 364.82815,532.70198 L 361.59672,530.60574 L 365.23473,531.87113 L 365.43442,528.02452 L 366.15756,531.80782 L 369.58867,530.05745 L 366.67381,532.57536 L 369.90523,534.67160 z "
         inkscape:randomized="0.0000000"
         inkscape:rounded="0.0000000"
         inkscape:flatsided="false"
         sodipodi:arg2="0.97869959"
         sodipodi:arg1="0.45510081"
         sodipodi:r2="0.92500001"
         sodipodi:r1="4.6250000"
         sodipodi:cy="532.63867"
         sodipodi:cx="365.75098"
         sodipodi:sides="6"
         id="path2405"
         style="fill:#ffffff;fill-opacity:1.0000000;fill-rule:evenodd;stroke:#c8c8c8;stroke-width:0.42694515;stroke-miterlimit:4.0000000;stroke-opacity:1.0000000"
         sodipodi:type="star" />
      <path
         sodipodi:type="star"
         style="fill:#ffffff;fill-opacity:1.0000000;fill-rule:evenodd;stroke:#c8c8c8;stroke-width:0.42694515;stroke-miterlimit:4.0000000;stroke-opacity:1.0000000"
         id="path2441"
         sodipodi:sides="6"
         sodipodi:cx="365.75098"
         sodipodi:cy="532.63867"
         sodipodi:r1="4.6250000"
         sodipodi:r2="0.92500001"
         sodipodi:arg1="0.45510081"
         sodipodi:arg2="0.97869959"
         inkscape:flatsided="false"
         inkscape:rounded="0.0000000"
         inkscape:randomized="0.0000000"
         d="M 369.90523,534.67160 L 366.26722,533.40621 L 366.06753,537.25283 L 365.34439,533.46952 L 361.91328,535.21989 L 364.82815,532.70198 L 361.59672,530.60574 L 365.23473,531.87113 L 365.43442,528.02452 L 366.15756,531.80782 L 369.58867,530.05745 L 366.67381,532.57536 L 369.90523,534.67160 z "
         transform="matrix(1.865685,0.173953,-0.173953,1.865685,-515.2459,-325.4569)" />
      <path
         transform="matrix(1.865685,0.173953,-0.173953,1.865685,-466.2954,-325.4569)"
         d="M 369.90523,534.67160 L 366.26722,533.40621 L 366.06753,537.25283 L 365.34439,533.46952 L 361.91328,535.21989 L 364.82815,532.70198 L 361.59672,530.60574 L 365.23473,531.87113 L 365.43442,528.02452 L 366.15756,531.80782 L 369.58867,530.05745 L 366.67381,532.57536 L 369.90523,534.67160 z "
         inkscape:randomized="0.0000000"
         inkscape:rounded="0.0000000"
         inkscape:flatsided="false"
         sodipodi:arg2="0.97869959"
         sodipodi:arg1="0.45510081"
         sodipodi:r2="0.92500001"
         sodipodi:r1="4.6250000"
         sodipodi:cy="532.63867"
         sodipodi:cx="365.75098"
         sodipodi:sides="6"
         id="path2445"
         style="fill:#ffffff;fill-opacity:1.0000000;fill-rule:evenodd;stroke:#c8c8c8;stroke-width:0.42694515;stroke-miterlimit:4.0000000;stroke-opacity:1.0000000"
         sodipodi:type="star" />
    </g>
  </g>
</svg>
